HIERARCHY
ROOT mixamorig:Hips
{
	OFFSET -0.000007 99.791939 0.000048
	CHANNELS 6 Xposition Yposition Zposition Xrotation Yrotation Zrotation
	JOINT mixamorig:Spine
	{
		OFFSET -0.000008 9.923462 -1.227335
		CHANNELS 3 Xrotation Yrotation Zrotation
		JOINT mixamorig:Spine1
		{
			OFFSET -0.001162 11.645439 -1.422341
			CHANNELS 3 Xrotation Yrotation Zrotation
			JOINT mixamorig:Spine2
			{
				OFFSET -0.001082 13.360199 -1.626459
				CHANNELS 3 Xrotation Yrotation Zrotation
				JOINT mixamorig:Neck
				{
					OFFSET -0.001294 15.032486 0.792904
					CHANNELS 3 Xrotation Yrotation Zrotation
					JOINT mixamorig:Head
					{
						OFFSET -0.000902 10.321838 3.142429
						CHANNELS 3 Xrotation Yrotation Zrotation
						JOINT mixamorig:HeadTop_End
						{
							OFFSET -0.001464 18.474670 6.636400
							CHANNELS 3 Xrotation Yrotation Zrotation
							End Site
							{
								OFFSET -0.001724 19.630463 0.000000
							}
						}
					}
				}
				JOINT mixamorig:LeftShoulder
				{
					OFFSET 6.105025 9.110947 0.705547
					CHANNELS 3 Xrotation Yrotation Zrotation
					JOINT mixamorig:LeftArm
					{
						OFFSET 12.655060 -0.264816 -2.600928
						CHANNELS 3 Xrotation Yrotation Zrotation
						JOINT mixamorig:LeftForeArm
						{
							OFFSET 27.404680 0.002457 -0.000007
							CHANNELS 3 Xrotation Yrotation Zrotation
							JOINT mixamorig:LeftHand
							{
								OFFSET 27.614456 0.002457 0.000007
								CHANNELS 3 Xrotation Yrotation Zrotation
								JOINT mixamorig:LeftHandThumb1
								{
									OFFSET 3.789009 -2.166824 3.002973
									CHANNELS 3 Xrotation Yrotation Zrotation
									JOINT mixamorig:LeftHandThumb2
									{
										OFFSET 3.675636 -2.121704 2.122010
										CHANNELS 3 Xrotation Yrotation Zrotation
										JOINT mixamorig:LeftHandThumb3
										{
											OFFSET 3.394531 -1.959473 1.959746
											CHANNELS 3 Xrotation Yrotation Zrotation
											JOINT mixamorig:LeftHandThumb4
											{
												OFFSET 2.679504 -1.546753 1.546951
												CHANNELS 3 Xrotation Yrotation Zrotation
												End Site
												{
													OFFSET 2.400604 -1.530380 1.964751
												}
											}
										}
									}
								}
								JOINT mixamorig:LeftHandIndex1
								{
									OFFSET 12.266647 -0.230743 2.822040
									CHANNELS 3 Xrotation Yrotation Zrotation
									JOINT mixamorig:LeftHandIndex2
									{
										OFFSET 3.891968 0.000336 0.000037
										CHANNELS 3 Xrotation Yrotation Zrotation
										JOINT mixamorig:LeftHandIndex3
										{
											OFFSET 3.415161 0.000305 -0.000010
											CHANNELS 3 Xrotation Yrotation Zrotation
											JOINT mixamorig:LeftHandIndex4
											{
												OFFSET 3.077995 0.000275 -0.000009
												CHANNELS 3 Xrotation Yrotation Zrotation
												End Site
												{
													OFFSET 3.077988 0.000259 0.000131
												}
											}
										}
									}
								}
								JOINT mixamorig:LeftHandMiddle1
								{
									OFFSET 12.775536 0.001129 0.000014
									CHANNELS 3 Xrotation Yrotation Zrotation
									JOINT mixamorig:LeftHandMiddle2
									{
										OFFSET 3.613968 0.000320 0.000000
										CHANNELS 3 Xrotation Yrotation Zrotation
										JOINT mixamorig:LeftHandMiddle3
										{
											OFFSET 3.459763 0.000305 -0.000028
											CHANNELS 3 Xrotation Yrotation Zrotation
											JOINT mixamorig:LeftHandMiddle4
											{
												OFFSET 3.680191 0.000320 0.000031
												CHANNELS 3 Xrotation Yrotation Zrotation
												End Site
												{
													OFFSET 3.680191 0.000351 -0.004814
												}
											}
										}
									}
								}
								JOINT mixamorig:LeftHandRing1
								{
									OFFSET 12.147018 0.011063 -2.216636
									CHANNELS 3 Xrotation Yrotation Zrotation
									JOINT mixamorig:LeftHandRing2
									{
										OFFSET 3.601181 0.000320 0.000033
										CHANNELS 3 Xrotation Yrotation Zrotation
										JOINT mixamorig:LeftHandRing3
										{
											OFFSET 3.307320 0.000305 -0.000023
											CHANNELS 3 Xrotation Yrotation Zrotation
											JOINT mixamorig:LeftHandRing4
											{
												OFFSET 3.660118 0.000320 0.000000
												CHANNELS 3 Xrotation Yrotation Zrotation
												End Site
												{
													OFFSET 3.660103 0.000229 0.005616
												}
											}
										}
									}
								}
								JOINT mixamorig:LeftHandPinky1
								{
									OFFSET 10.908218 -0.225174 -4.725837
									CHANNELS 3 Xrotation Yrotation Zrotation
									JOINT mixamorig:LeftHandPinky2
									{
										OFFSET 4.136658 0.000351 0.001166
										CHANNELS 3 Xrotation Yrotation Zrotation
										JOINT mixamorig:LeftHandPinky3
										{
											OFFSET 2.594826 0.000244 -0.001180
											CHANNELS 3 Xrotation Yrotation Zrotation
											JOINT mixamorig:LeftHandPinky4
											{
												OFFSET 2.923874 0.000244 0.000018
												CHANNELS 3 Xrotation Yrotation Zrotation
												End Site
												{
													OFFSET 2.923851 0.000275 -0.003346
												}
											}
										}
									}
								}
							}
						}
					}
				}
				JOINT mixamorig:RightShoulder
				{
					OFFSET -6.106495 9.109970 0.705565
					CHANNELS 3 Xrotation Yrotation Zrotation
					JOINT mixamorig:RightArm
					{
						OFFSET -12.655020 -0.267136 -2.600890
						CHANNELS 3 Xrotation Yrotation Zrotation
						JOINT mixamorig:RightForeArm
						{
							OFFSET -27.404675 -0.002365 0.000019
							CHANNELS 3 Xrotation Yrotation Zrotation
							JOINT mixamorig:RightHand
							{
								OFFSET -27.614464 -0.002396 0.000031
								CHANNELS 3 Xrotation Yrotation Zrotation
								JOINT mixamorig:RightHandThumb1
								{
									OFFSET -3.788620 -2.167480 3.002977
									CHANNELS 3 Xrotation Yrotation Zrotation
									JOINT mixamorig:RightHandThumb2
									{
										OFFSET -3.675247 -2.122314 2.122009
										CHANNELS 3 Xrotation Yrotation Zrotation
										JOINT mixamorig:RightHandThumb3
										{
											OFFSET -3.394188 -1.960129 1.959755
											CHANNELS 3 Xrotation Yrotation Zrotation
											JOINT mixamorig:RightHandThumb4
											{
												OFFSET -2.679230 -1.547195 1.546953
												CHANNELS 3 Xrotation Yrotation Zrotation
												End Site
												{
													OFFSET -2.398781 -1.531693 1.965949
												}
											}
										}
									}
								}
								JOINT mixamorig:RightHandIndex1
								{
									OFFSET -12.266594 -0.232895 2.822051
									CHANNELS 3 Xrotation Yrotation Zrotation
									JOINT mixamorig:RightHandIndex2
									{
										OFFSET -3.891968 -0.000336 0.000040
										CHANNELS 3 Xrotation Yrotation Zrotation
										JOINT mixamorig:RightHandIndex3
										{
											OFFSET -3.415161 -0.000305 -0.000006
											CHANNELS 3 Xrotation Yrotation Zrotation
											JOINT mixamorig:RightHandIndex4
											{
												OFFSET -3.077988 -0.000275 0.000006
												CHANNELS 3 Xrotation Yrotation Zrotation
												End Site
												{
													OFFSET -3.077980 0.000229 -0.008454
												}
											}
										}
									}
								}
								JOINT mixamorig:RightHandMiddle1
								{
									OFFSET -12.775528 -0.001114 0.000025
									CHANNELS 3 Xrotation Yrotation Zrotation
									JOINT mixamorig:RightHandMiddle2
									{
										OFFSET -3.613968 -0.000320 0.000005
										CHANNELS 3 Xrotation Yrotation Zrotation
										JOINT mixamorig:RightHandMiddle3
										{
											OFFSET -3.459763 -0.000305 -0.000025
											CHANNELS 3 Xrotation Yrotation Zrotation
											JOINT mixamorig:RightHandMiddle4
											{
												OFFSET -3.680191 -0.000320 0.000034
												CHANNELS 3 Xrotation Yrotation Zrotation
												End Site
												{
													OFFSET -3.680168 -0.000031 0.012581
												}
											}
										}
									}
								}
								JOINT mixamorig:RightHandRing1
								{
									OFFSET -12.147003 0.008942 -2.216624
									CHANNELS 3 Xrotation Yrotation Zrotation
									JOINT mixamorig:RightHandRing2
									{
										OFFSET -3.601196 -0.000320 0.000037
										CHANNELS 3 Xrotation Yrotation Zrotation
										JOINT mixamorig:RightHandRing3
										{
											OFFSET -3.307312 -0.000290 -0.000019
											CHANNELS 3 Xrotation Yrotation Zrotation
											JOINT mixamorig:RightHandRing4
											{
												OFFSET -3.660118 -0.000320 0.000002
												CHANNELS 3 Xrotation Yrotation Zrotation
												End Site
												{
													OFFSET -3.660110 0.000107 0.002180
												}
											}
										}
									}
								}
								JOINT mixamorig:RightHandPinky1
								{
									OFFSET -10.908173 -0.227081 -4.725826
									CHANNELS 3 Xrotation Yrotation Zrotation
									JOINT mixamorig:RightHandPinky2
									{
										OFFSET -4.136642 -0.000366 0.000029
										CHANNELS 3 Xrotation Yrotation Zrotation
										JOINT mixamorig:RightHandPinky3
										{
											OFFSET -2.594841 -0.000229 -0.000036
											CHANNELS 3 Xrotation Yrotation Zrotation
											JOINT mixamorig:RightHandPinky4
											{
												OFFSET -2.923874 -0.000259 0.000021
												CHANNELS 3 Xrotation Yrotation Zrotation
												End Site
												{
													OFFSET -2.923820 0.000336 -0.012876
												}
											}
										}
									}
								}
							}
						}
					}
				}
			}
		}
	}
	JOINT mixamorig:LeftUpLeg
	{
		OFFSET 9.124458 -6.656387 -0.055378
		CHANNELS 3 Xrotation Yrotation Zrotation
		JOINT mixamorig:LeftLeg
		{
			OFFSET 0.244681 -40.595421 -0.515619
			CHANNELS 3 Xrotation Yrotation Zrotation
			JOINT mixamorig:LeftFoot
			{
				OFFSET -0.244669 -42.047928 -2.059156
				CHANNELS 3 Xrotation Yrotation Zrotation
				JOINT mixamorig:LeftToeBase
				{
					OFFSET 0.373535 -7.208548 13.966561
					CHANNELS 3 Xrotation Yrotation Zrotation
					JOINT mixamorig:LeftToe_End
					{
						OFFSET -0.142059 -0.175224 9.997455
						CHANNELS 3 Xrotation Yrotation Zrotation
						End Site
						{
							OFFSET -0.142060 -0.175223 9.997459
						}
					}
				}
			}
		}
	}
	JOINT mixamorig:RightUpLeg
	{
		OFFSET -9.124448 -6.656403 -0.055378
		CHANNELS 3 Xrotation Yrotation Zrotation
		JOINT mixamorig:RightLeg
		{
			OFFSET -0.244680 -40.595459 -0.514290
			CHANNELS 3 Xrotation Yrotation Zrotation
			JOINT mixamorig:RightFoot
			{
				OFFSET 0.244670 -42.047859 -2.060535
				CHANNELS 3 Xrotation Yrotation Zrotation
				JOINT mixamorig:RightToeBase
				{
					OFFSET -0.373535 -7.208539 13.966558
					CHANNELS 3 Xrotation Yrotation Zrotation
					JOINT mixamorig:RightToe_End
					{
						OFFSET 0.141798 -0.175009 9.997463
						CHANNELS 3 Xrotation Yrotation Zrotation
						End Site
						{
							OFFSET 0.141798 -0.175009 9.997467
						}
					}
				}
			}
		}
	}
}
MOTION
Frames: 4
Frame Time: 0.033333
-28.088549 93.757462 3.214665 -354.644322 -36.029685 369.717429 22.801079 -11.918463 14.533061 1.926924 -1.589610 -5.128945 1.770627 -1.832358 -5.102894 -3.206498 -4.959344 8.147888 3.998069 -13.711310 13.567217 0.000003 -0.000001 0.000000 2.010138 -9.363021 7.373152 -49.508862 -71.840626 -92.757200 0.000167 -1.933212 -0.000003 -8.767475 -40.607701 36.453597 -1.628064 8.967942 6.932385 4.378446 13.245593 1.151178 -0.579590 1.574940 2.538730 0.000005 0.000006 0.000004 0.038211 0.726531 -6.026801 0.552502 2.707187 -23.073328 0.433704 2.410228 -20.412442 -0.000001 0.000002 -0.000002 0.332099 2.117183 -17.838221 0.756960 3.144234 -27.076492 0.651633 2.929311 -25.088081 -0.000000 0.000001 0.000003 1.186546 3.869880 -34.087261 1.341295 4.088191 -36.324872 0.993233 3.568644 -31.114947 -0.000001 0.000002 -0.000002 6.723784 8.004772 -57.967214 1.851807 0.599108 -43.352881 1.190204 3.901216 -34.142569 -0.000000 0.000003 -0.000001 3.956957 13.790808 10.804173 -13.387552 53.361816 48.122975 -0.000003 0.041210 0.000022 -7.667893 -8.938095 -29.760688 -2.029283 -12.017297 -7.916179 5.397378 -17.106427 -0.804703 -1.273774 0.137197 -2.094869 -0.000000 0.000003 -0.000001 0.007116 -0.314478 2.577190 0.202644 -1.668493 13.833099 0.427431 -2.403928 20.150499 -0.000000 0.000001 -0.000001 0.070319 -0.987826 8.133740 0.271866 -1.928281 16.037614 0.409498 -2.354577 19.718915 0.000000 0.000002 -0.000000 0.260334 -1.887877 15.687415 0.487904 -2.562090 21.549500 0.471412 -2.520821 21.177442 0.000001 0.000001 0.000003 0.747730 -3.141137 26.760804 0.756962 -3.158951 26.938739 0.486417 -2.559645 21.509888 -0.000001 0.000001 0.000002 -13.161363 11.856265 17.427513 42.027773 -8.479998 -10.160630 1.676996 12.534583 -6.299015 -28.260785 0.955592 -7.857756 0.000001 0.000000 -0.000000 -36.556702 -7.206784 -9.377252 46.765632 6.882186 -6.307914 -14.792655 -22.529316 -3.062748 -2.332521 -0.000063 0.000026 -0.000000 0.000001 0.000000 
-26.026457 93.801437 3.756899 -356.257722 -28.732079 372.993762 23.269247 -16.052097 15.952149 2.930626 -2.194523 -4.729036 2.730036 -2.447190 -4.722041 -3.890016 -5.168252 8.277272 2.929306 -14.370887 13.264279 0.000000 -0.000000 -0.000000 2.152849 -9.471354 10.337719 -76.282107 -74.788393 -111.682062 0.000528 -5.728276 0.000009 -8.755725 -50.048949 23.451907 -1.628065 8.967944 6.932385 4.378445 13.245597 1.151182 -0.579589 1.574937 2.538736 0.000006 0.000005 -0.000001 0.033471 -0.678774 5.638937 0.307218 2.037720 -17.153130 0.415436 2.360581 -19.973326 -0.000000 0.000005 0.000002 0.123068 1.299182 -10.831883 0.533678 2.663177 -22.670409 0.614249 2.848178 -24.346138 0.000000 -0.000001 0.000001 0.935613 3.471104 -30.168625 1.224406 3.924621 -34.652248 1.013437 3.601869 -31.438200 -0.000000 -0.000000 0.000004 6.475572 7.996083 -56.183777 1.932422 0.683716 -44.322245 1.281489 4.032197 -35.470955 -0.000002 0.000000 -0.000002 3.848328 13.291700 10.168684 -10.175006 50.143192 46.870438 -0.000031 0.304028 0.000000 -8.090891 -9.489776 -21.820544 -2.029285 -12.017297 -7.916185 5.397379 -17.106434 -0.804704 -1.273772 0.137194 -2.094872 -0.000002 0.000000 0.000002 0.003920 -0.233284 1.910413 0.148757 -1.432290 11.843545 0.354416 -2.194945 18.331147 0.000000 0.000000 -0.000001 0.037574 -0.722783 5.941748 0.224192 -1.754198 14.554959 0.376483 -2.260437 18.899115 0.000000 0.000001 -0.000002 0.138692 -1.384075 11.430222 0.436151 -2.427073 20.360874 0.489438 -2.566865 21.583917 -0.000000 -0.000000 0.000003 0.399762 -2.327395 19.478287 0.767637 -3.179836 27.131689 0.576176 -2.776290 23.438042 -0.000001 -0.000002 0.000004 -8.481335 17.092866 12.945480 34.376991 -7.693064 -10.516353 0.391182 8.946575 -11.445072 -24.863562 0.164007 -2.720475 0.000000 0.000000 0.000000 -35.076245 1.273942 -13.052181 49.429611 6.399477 -8.742359 -13.113761 -28.043114 1.515152 -4.171001 -0.000055 0.000040 -0.000000 -0.000002 -0.000001 
-23.961679 94.109901 4.327608 -357.828146 -23.279984 376.512102 23.770619 -19.469657 16.717322 3.147377 -2.685635 -4.339840 2.917895 -2.929253 -4.340126 -4.075749 -5.269205 8.295804 1.989865 -14.828954 12.110576 0.000001 -0.000000 -0.000001 2.424863 -10.203367 12.720032 -90.686908 -74.764746 -119.197251 0.000867 -9.772575 0.000054 -11.546765 -52.781424 7.250977 -1.628065 8.967939 6.932380 4.378448 13.245590 1.151178 -0.579589 1.574938 2.538732 0.000003 0.000001 0.000008 0.123530 -1.300348 10.846509 0.101628 1.181143 -9.842865 0.351380 2.176350 -18.354542 -0.000004 -0.000001 0.000003 0.041509 0.756983 -6.285791 0.331059 2.113977 -17.810234 0.538837 2.675451 -22.781027 -0.000000 0.000007 0.000001 0.658344 2.943592 -25.215033 1.057631 3.672080 -32.134756 0.994914 3.571431 -31.142070 -0.000000 0.000000 0.000003 5.565692 7.898177 -49.609423 1.969249 0.721398 -44.759217 1.354663 4.132751 -36.505599 0.000001 0.000001 0.000000 3.600733 12.131815 8.999011 -7.870996 46.009052 45.655218 -0.000127 1.685459 0.000009 -9.505795 -10.086431 -10.829502 -2.029286 -12.017296 -7.916182 5.397379 -17.106432 -0.804704 -1.273774 0.137194 -2.094870 0.000001 0.000001 -0.000001 0.009074 -0.355341 2.912874 0.127382 -1.326331 10.956029 0.290718 -1.992636 16.588508 -0.000000 -0.000002 0.000001 0.024194 -0.580047 4.765186 0.188467 -1.610446 13.338500 0.343181 -2.160833 18.036059 -0.000001 -0.000002 0.000001 0.064143 -0.943773 7.763685 0.354341 -2.194263 18.332849 0.487726 -2.562520 21.545441 -0.000001 -0.000001 -0.000003 0.165943 -1.512426 12.509227 0.661006 -2.962824 25.142425 0.645021 -2.929761 24.821596 -0.000002 -0.000001 0.000001 -1.332274 17.177188 5.662477 25.121685 -4.271187 -11.032106 -2.132262 3.194399 -10.756494 -22.509133 -0.000062 -0.000016 -0.000000 -0.000000 0.000000 -30.103898 12.391200 -16.617983 50.932816 5.704323 -10.347223 -9.597223 -29.246925 6.596324 -6.827796 -0.000061 0.000044 0.000001 -0.000003 -0.000000 
-22.008114 94.118011 4.831558 -359.053810 -18.908622 379.670900 23.394171 -22.328781 17.211180 2.957186 -3.085996 -4.107808 2.705146 -3.309378 -4.106963 -3.694611 -5.317327 8.386034 1.207287 -15.255890 11.091401 0.000004 -0.000000 -0.000001 2.803697 -11.498136 13.942446 -93.452943 -74.732330 -116.506826 0.001203 -13.200964 0.000130 -10.424022 -49.665359 -3.989898 -1.628064 8.967944 6.932387 4.378450 13.245596 1.151180 -0.579593 1.574935 2.538735 0.000003 0.000005 0.000003 0.097217 -1.154613 9.618736 0.016799 0.481965 -4.002895 0.247939 1.835417 -15.398603 -0.000000 -0.000000 0.000002 0.016997 0.485121 -4.023494 0.201684 1.658194 -13.879465 0.439007 2.424267 -20.536934 0.000001 -0.000001 -0.000000 0.371292 2.235195 -18.866036 0.864744 3.345951 -28.984516 0.934972 3.470447 -30.165688 0.000001 0.000002 -0.000001 3.957637 7.456599 -37.614723 1.895942 0.645786 -43.885833 1.400285 4.193510 -37.137934 0.000002 0.000001 0.000001 3.426662 11.317750 7.612992 -8.671321 40.578861 45.614544 -0.000109 1.170637 -0.000001 -12.346759 -9.493784 2.166887 -2.029285 -12.017297 -7.916183 5.397378 -17.106429 -0.804701 -1.273776 0.137194 -2.094876 0.000001 -0.000004 -0.000001 0.040095 -0.746542 6.133744 0.119740 -1.286256 10.621176 0.257051 -1.876062 15.591660 0.000001 -0.000001 0.000002 0.033165 -0.679062 5.581138 0.162856 -1.498408 12.394824 0.321171 -2.092082 17.442876 -0.000001 -0.000002 0.000003 0.042674 -0.770189 6.328125 0.268286 -1.915357 15.934645 0.471159 -2.520199 21.171870 0.000001 0.000003 -0.000004 0.077279 -1.035304 8.524345 0.485662 -2.556560 21.503099 0.674978 -2.993552 25.401246 -0.000000 0.000000 0.000002 4.877220 11.682566 -1.944056 15.548140 -2.889675 -10.092381 -4.911274 1.733985 -8.419883 -17.424076 -0.000050 -0.000005 0.000000 0.000000 0.000000 -23.081559 22.902908 -21.258890 52.016873 4.244070 -10.337292 -7.935954 -26.580431 8.313197 -8.778744 -0.000042 0.000064 -0.000000 -0.000001 0.000001 
